<svg xmlns="http://www.w3.org/2000/svg" viewBox="0 0 216.33 61.56"><g id="Layer_2" data-name="Layer 2"><g id="Layer_1-2" data-name="Layer 1"><path d="M186.16,23.35c-10-7.06-24.46-3.66-33.68,3.06-5.32,3.87-8.51,9-12,14.35-4.15,6.35-10,10.69-18,9.73C114.58,49.55,105.65,41.31,110,33c2-3.76,7.17-6.64,11.12-3.86,3,2.15,4.1,6.74,1.8,9.76-.17.22.17.52.37.33,2.78-2.57,2.68-6.51.54-9.49-2.47-3.46-7-4-10.68-2.12-10.42,5.46-5,19.09,3.71,23a19.53,19.53,0,0,0,14.83.29c5.77-2.25,9-7.27,12.13-12.24,7.42-11.7,22.1-21,36.52-16.16,7.59,2.55,14.53,12.08,9.27,19.72a10.67,10.67,0,0,1-9.42,4.61c-3.53-.36-8.08-5-4.45-8.19a.78.78,0,0,0-.86-1.28c-3.59,1.91-2.75,6.46-.33,9.06,2.88,3.1,7.83,3.06,11.45,1.4C196.56,43,194.55,29.26,186.16,23.35Z" style="fill:#121209"/><path d="M29.22,23.35c10-7.06,24.46-3.66,33.68,3.06,5.32,3.87,8.51,9,12,14.35,4.15,6.35,10,10.69,18,9.73,7.82-.94,16.75-9.18,12.44-17.47-2-3.76-7.18-6.64-11.13-3.86-3.05,2.15-4.1,6.74-1.8,9.76.17.22-.16.52-.37.33-2.78-2.57-2.68-6.51-.54-9.49,2.47-3.46,7-4,10.68-2.12,10.42,5.46,5,19.09-3.71,23a19.53,19.53,0,0,1-14.83.29c-5.77-2.25-9-7.27-12.13-12.24-7.42-11.7-22.1-21-36.52-16.16-7.59,2.55-14.53,12.08-9.27,19.72a10.69,10.69,0,0,0,9.42,4.61c3.53-.36,8.08-5,4.45-8.19a.78.78,0,0,1,.86-1.28c3.59,1.91,2.75,6.46.33,9.06C38,49.53,33,49.49,29.41,47.83,18.82,43,20.83,29.26,29.22,23.35Z" style="fill:#121209"/><path d="M119.68,30.51c-3.45-2.93-7.06,1.17-7.59,4.45-.65,4.06,1.34,9.24,5,11.36a.12.12,0,0,0,.15-.17c-1.47-2-2.85-3.71-3.38-6.2a11.39,11.39,0,0,1-.16-3.82,7.3,7.3,0,0,1,.21-1.31c.2-1.6,1-2.15,2.54-1.66a1.77,1.77,0,0,0,.65,1.88C119.81,37.32,122.11,32.57,119.68,30.51Z" style="fill:#121209"/><path d="M187.32,30.42c-3.7-7.71-14.14-8.35-21.32-6-9.54,3.12-17.31,11.31-22.58,19.48-.07.1.1.19.17.11,7.43-7.82,13.92-16.87,25.26-19.22,5-1.05,10.85-.48,14.84,3A9.52,9.52,0,0,1,187,34.67a8.73,8.73,0,0,1-.6,3.53,6.33,6.33,0,0,1-1.1,1.83,2.3,2.3,0,0,1-2,1.17,2.06,2.06,0,0,0-1.76-3c-2.65-.17-3.25,3.34-1.37,4.7,2.51,1.82,5.48-.74,6.77-2.79A10.27,10.27,0,0,0,187.32,30.42Z" style="fill:#121209"/><path d="M95.57,30.51c3.45-2.93,7.05,1.17,7.58,4.45.65,4.06-1.34,9.24-5,11.36-.1.06-.21-.08-.15-.17,1.47-2,2.86-3.71,3.38-6.2a11.66,11.66,0,0,0,.17-3.82,8.33,8.33,0,0,0-.22-1.31c-.2-1.6-1-2.15-2.53-1.66A1.79,1.79,0,0,1,98.12,35C95.43,37.32,93.13,32.57,95.57,30.51Z" style="fill:#121209"/><path d="M27.93,30.42c3.69-7.71,14.13-8.35,21.31-6,9.54,3.12,17.31,11.31,22.58,19.48.07.1-.09.19-.17.11-7.43-7.82-13.92-16.87-25.26-19.22-5-1.05-10.85-.48-14.84,3a9.52,9.52,0,0,0-3.32,6.84,8.9,8.9,0,0,0,.6,3.53A6.15,6.15,0,0,0,29.94,40a2.27,2.27,0,0,0,2,1.17,2.06,2.06,0,0,1,1.76-3c2.65-.17,3.25,3.34,1.37,4.7-2.51,1.82-5.48-.74-6.77-2.79A10.24,10.24,0,0,1,27.93,30.42Z" style="fill:#121209"/><path d="M20.61,18.25a44,44,0,0,0-6.09,1.53,28.81,28.81,0,0,0-7.15,3.48C2.66,26.57.57,30.36.14,32.79s.34,3.53.8,3.41S1.63,35,2.5,33a19.09,19.09,0,0,1,6.7-7.7,57.84,57.84,0,0,1,11.68-5.72l3.88-1.5,1.43-.57-1.5.16C23.74,17.76,22.34,17.93,20.61,18.25Z" style="fill:#121209"/><path d="M17.54,24.37a15.31,15.31,0,0,0-4.86,6.31,8.16,8.16,0,0,0-.34,5.07A4.47,4.47,0,0,0,14,38.24c.57.4,1,.46,1.21.3.49-.37-.31-1.31-.41-3.42s.68-5.59,4.84-8.92,9.08-5.33,12.57-7c1.75-.82,3.17-1.54,4.14-2.07s1.47-.84,1.47-.84l-6.05,1.65a65.09,65.09,0,0,0-6.57,2.13A29.19,29.19,0,0,0,17.54,24.37Z" style="fill:#121209"/><path d="M195.71,18.25a43.6,43.6,0,0,1,6.09,1.53A28.64,28.64,0,0,1,209,23.26c4.72,3.31,6.81,7.1,7.24,9.53s-.34,3.53-.8,3.41S214.7,35,213.82,33a18.93,18.93,0,0,0-6.7-7.7,57.53,57.53,0,0,0-11.67-5.72l-3.88-1.5-1.43-.57,1.49.16C192.59,17.76,194,17.93,195.71,18.25Z" style="fill:#121209"/><path d="M198.79,24.37a15.31,15.31,0,0,1,4.86,6.31,8.16,8.16,0,0,1,.34,5.07,4.47,4.47,0,0,1-1.63,2.49c-.58.4-1,.46-1.21.3-.49-.37.3-1.31.41-3.42s-.69-5.59-4.85-8.92-9.07-5.33-12.56-7c-1.76-.82-3.18-1.54-4.14-2.07s-1.48-.84-1.48-.84l6.06,1.65a65.91,65.91,0,0,1,6.57,2.13A29.19,29.19,0,0,1,198.79,24.37Z" style="fill:#121209"/><path d="M52.86,38.16c6.65-1.5,13.6,4.45,18.56,8.63,6.67,5.61,14.06,12.75,23,12.17,5.21-.34,12.06-5.92,11.16-11.84a10.55,10.55,0,0,1-.6,7.29c-3.43,6.4-11.28,6.91-17.53,4.41C79.67,55.72,74,48.82,67.22,44a32.54,32.54,0,0,0-5.69-3.12,20.33,20.33,0,0,1,5.26,3.83C73.08,51,76.72,59.21,85.91,61.25c.06,0,.16.28.19.28-8.32.67-12.69-9.16-17.88-14.46-3.75-3.83-9.17-7.18-14-4.21a6.17,6.17,0,0,0-3.17,5c.08,6.12,5.12,6.42,6,3.11,0,.1.45.53.47.69.72,5.14-4.26,2.18-5.88-.15-2.17-3.13-2.74-7,0-9.79a7.26,7.26,0,0,1,7.23-1.85C53.9,38.43,48.94,38.74,48.28,45c-.58,5.47,5.48,11,10.45,9.5,3.79-1.14,3.15-5.52,1.1-6.9a2.22,2.22,0,0,1-.22,1.91,2,2,0,0,1-2.85.42,2.29,2.29,0,0,1-.55-3,1.9,1.9,0,0,1,2-.81,3.88,3.88,0,0,1,3.27,1.63c3.83,4.67-1.75,9.44-6.39,7.65C48.16,52.69,43.62,40.25,52.86,38.16Z" style="fill:#121209"/><path d="M163.17,38.16c-6.65-1.5-13.6,4.45-18.56,8.63-6.67,5.61-14.06,12.75-23,12.17-5.21-.34-12.06-5.92-11.16-11.84a10.55,10.55,0,0,0,.6,7.29c3.43,6.4,11.28,6.91,17.53,4.41,7.77-3.1,13.41-10,20.22-14.81a32.54,32.54,0,0,1,5.69-3.12,20.33,20.33,0,0,0-5.26,3.83C143,51,139.31,59.21,130.12,61.25c-.06,0-.16.28-.19.28,8.32.67,12.69-9.16,17.88-14.46,3.75-3.83,9.17-7.18,14.05-4.21a6.17,6.17,0,0,1,3.17,5c-.08,6.12-5.12,6.42-6,3.11,0,.1-.45.53-.47.69-.72,5.14,4.26,2.18,5.88-.15,2.17-3.13,2.74-7,0-9.79a7.27,7.27,0,0,0-7.24-1.85c4.9-1.47,9.86-1.16,10.52,5.08.58,5.47-5.48,11-10.45,9.5-3.79-1.14-3.15-5.52-1.1-6.9a2.22,2.22,0,0,0,.22,1.91,2,2,0,0,0,2.85.42,2.3,2.3,0,0,0,.55-3,1.9,1.9,0,0,0-2-.81,3.88,3.88,0,0,0-3.27,1.63c-3.83,4.67,1.75,9.44,6.39,7.65C167.87,52.69,172.41,40.25,163.17,38.16Z" style="fill:#121209"/><path d="M98.77,19a11.31,11.31,0,0,0-6-2.51c-1.52-.08-2.26.35-2.26.79,0,1,2.56,1.09,6.38,4,1.87,1.45,3.59,3,4.92,4.09s2.24,1.76,2.24,1.76a19.26,19.26,0,0,0-1-2.62A14.94,14.94,0,0,0,98.77,19Z" style="fill:#121209"/><path d="M128.51,27.39a8.33,8.33,0,0,1-3.67-1.9,3.63,3.63,0,0,1,.12-5.28c1.28-1.22,4.43-2.39,5.73-.64A2.17,2.17,0,0,1,131.1,21a2.25,2.25,0,0,0-1.57-.9c-4-.47-3.86,6.24-.26,6.51a3.84,3.84,0,0,0,2.34-.72c3.85-2.52,2.65-8.82-.88-11-4.52-2.8-11.7.53-15.43,3.33a21.58,21.58,0,0,0-5,5.44c-1.24,1.9-1.64,3.94-2.61,5.94-1-2-1.37-4-2.62-5.94a21.18,21.18,0,0,0-5-5.44c-3.73-2.8-10.92-6.13-15.43-3.33-3.53,2.19-4.72,8.49-.87,11a3.79,3.79,0,0,0,2.33.72c3.6-.27,3.76-7-.26-6.51a2.27,2.27,0,0,0-1.57.9,2.07,2.07,0,0,1,.41-1.44c1.3-1.75,4.45-.58,5.72.64a3.62,3.62,0,0,1,.13,5.28,8.39,8.39,0,0,1-3.67,1.9c-6.09,2-11.77-3.56-7.75-9.31,2.29-3.27,7.57-5.06,11.54-5.25a16,16,0,0,1,13,5.85c-.23-.4-.5-.79-.78-1.19-1.51-2.09-4.12-4.11-4.08-6.89.06-5.12,6.63-6.66,9-10.6,2.33,3.94,8.9,5.48,9,10.6,0,2.78-2.57,4.8-4.08,6.89-.29.4-.54.79-.78,1.19a16,16,0,0,1,13-5.85c4,.19,9.26,2,11.54,5.25C140.28,23.83,134.59,29.37,128.51,27.39ZM114.59,9.93c.09-4-4.58-5.78-7-8.42-2.37,2.64-7,4.42-7,8.42.08,3,3.3,5.29,4.82,7.62a16.78,16.78,0,0,1,2.14,4.65,16.5,16.5,0,0,1,2.14-4.65C111.3,15.22,114.53,12.94,114.59,9.93Z" style="fill:#121209"/><path d="M111.25,7.85a14.71,14.71,0,0,0-1.66-1.69l-2-1.79-2,1.79A15.58,15.58,0,0,0,104,7.85a5.08,5.08,0,0,0-1,2.1,5,5,0,0,0,.93,3.6c.74,1.13,1.72,2.13,2.4,3.3a17,17,0,0,1,1.31,3.1,17,17,0,0,1,1.31-3.1c.69-1.17,1.66-2.17,2.4-3.3a5,5,0,0,0,.93-3.6A4.87,4.87,0,0,0,111.25,7.85Z" style="fill:#121209"/><path d="M124.75,17.28c0-.44-.74-.87-2.26-.79a11.31,11.31,0,0,0-6,2.51,15.1,15.1,0,0,0-4.26,5.48,19.26,19.26,0,0,0-1,2.62s.93-.64,2.25-1.76,3-2.64,4.92-4.09C122.19,18.37,124.75,18.31,124.75,17.28Z" style="fill:#121209"/></g></g></svg>