<svg xmlns="http://www.w3.org/2000/svg" viewBox="0 0 264.56 42.1"><g id="Layer_2" data-name="Layer 2"><g id="Layer_1-2" data-name="Layer 1"><path d="M44,2.37C47.68.78,50.69,0,54.31,1.91a6.29,6.29,0,0,1,1.13.74A5.79,5.79,0,0,0,52.5,7.89c.16,2.68,2.68,2.77,4.44,1.85,2.28-1.21,2.47-3.67,1.41-5.8a5.72,5.72,0,0,0-1.52-1.87c4.09-2.25,10.6-1,14.39.5A7.82,7.82,0,0,1,74,4.13c-.29.13-.9.46-1.19.64a7,7,0,0,0-2.78,4c-.56,1.77,1,3.37,2.8,3.58,3,.35,5.74-2.5,5.31-5.18a5.52,5.52,0,0,0-1.27-2.89c20.83-.2,32.64,25.78,47.59,18.1,10-5.15,7.7-18.19-3.76-18.94a8.3,8.3,0,0,0-7.55,4.28c-1.19,2.14-1.1,4.81.9,6.42,1.27,1,3.08.86,3.36-.47a1.51,1.51,0,0,1-.75.29c-3.1-.07-3.44-4.16-2.56-6.29,1.2-2.95,3.85-4,6.86-3.32,4.76,1.05,7.67,5.79,7.67,10.36a7.12,7.12,0,0,1-6.09,7.1C107.21,23.45,91.79-4.07,76.25,3.4,73,.14,66,.05,62.31.3a15.59,15.59,0,0,0-5.65,1.63,10.22,10.22,0,0,0-6-1.93,10.84,10.84,0,0,0-4,1c-2.78,1.16-6.52,2.76-9.56,3.14A27.76,27.76,0,0,0,44,2.37Zm32,4.1c1.38,2.36,0,6.7-3.39,4.85-2.39-1.29-.45-4.63.82-5.86a3.71,3.71,0,0,1,1.15-.74A7.52,7.52,0,0,1,76.06,6.47ZM57.82,7.3c.1,2.32-2.22,2.86-3.67,1.41-1.09-1.1-.71-2.72-.07-3.91a6.54,6.54,0,0,1,1.6-1.95A6.16,6.16,0,0,1,57.82,7.3Z" style="fill:#121209"/><path d="M227.09,4.12c-3-.38-6.78-2-9.56-3.14a10.79,10.79,0,0,0-4-1,10.23,10.23,0,0,0-6,1.93A15.55,15.55,0,0,0,201.88.3c-3.7-.25-10.74-.16-13.94,3.1-15.54-7.47-31,20.05-46.27,18.45a7.12,7.12,0,0,1-6.09-7.1c0-4.57,2.91-9.31,7.68-10.36,3-.66,5.65.37,6.86,3.32.87,2.13.54,6.22-2.57,6.29a1.49,1.49,0,0,1-.74-.29c.27,1.33,2.08,1.49,3.36.47,2-1.61,2.08-4.28.89-6.42a8.3,8.3,0,0,0-7.54-4.28c-11.46.75-13.78,13.79-3.77,18.94,15,7.68,26.76-18.3,47.6-18.1a5.54,5.54,0,0,0-1.28,2.89c-.43,2.68,2.34,5.53,5.32,5.18,1.82-.21,3.36-1.81,2.79-3.58a7,7,0,0,0-2.78-4,12.49,12.49,0,0,0-1.19-.64A7.78,7.78,0,0,1,193,2.57c3.78-1.55,10.29-2.75,14.39-.5a5.89,5.89,0,0,0-1.53,1.87c-1.06,2.13-.87,4.59,1.42,5.8,1.76.92,4.27.83,4.43-1.85a5.75,5.75,0,0,0-2.94-5.24,6.67,6.67,0,0,1,1.13-.74c3.62-1.89,6.63-1.13,10.28.46A27.66,27.66,0,0,0,227.09,4.12Zm-37.55.6a3.49,3.49,0,0,1,1.15.74c1.27,1.23,3.22,4.57.83,5.86-3.44,1.85-4.78-2.49-3.4-4.85A7.78,7.78,0,0,1,189.54,4.72Zm19-1.87a6.57,6.57,0,0,1,1.61,1.95c.63,1.19,1,2.81-.08,3.91-1.45,1.45-3.77.91-3.67-1.41A6.16,6.16,0,0,1,208.5,2.85Z" style="fill:#121209"/><path d="M137.51,30.37a6.86,6.86,0,0,0,3.69,1.55c.94,0,1.4-.21,1.4-.48,0-.64-1.58-.68-3.94-2.45-1.16-.9-2.21-1.85-3-2.53s-1.38-1.09-1.38-1.09a12.2,12.2,0,0,0,.65,1.62A9.11,9.11,0,0,0,137.51,30.37Z" style="fill:#121209"/><path d="M119.16,25.2a5.24,5.24,0,0,1,2.27,1.17,2.24,2.24,0,0,1-.08,3.26c-.79.75-2.73,1.48-3.53.39a1.27,1.27,0,0,1-.25-.88,1.39,1.39,0,0,0,1,.55c2.49.29,2.38-3.85.16-4a2.33,2.33,0,0,0-1.44.45c-2.38,1.55-1.63,5.44.54,6.79,2.79,1.73,7.22-.33,9.52-2a13.46,13.46,0,0,0,3.12-3.36A32,32,0,0,0,132,23.84a30.36,30.36,0,0,0,1.61,3.66,13.61,13.61,0,0,0,3.11,3.36c2.31,1.72,6.74,3.78,9.53,2,2.17-1.35,2.91-5.24.54-6.79a2.35,2.35,0,0,0-1.44-.45c-2.22.17-2.33,4.31.16,4a1.39,1.39,0,0,0,1-.55,1.27,1.27,0,0,1-.25.88c-.8,1.09-2.74.36-3.53-.39a2.24,2.24,0,0,1-.08-3.26,5.24,5.24,0,0,1,2.27-1.17c3.75-1.22,7.26,2.2,4.78,5.74-1.41,2-4.67,3.12-7.12,3.24a9.85,9.85,0,0,1-8-3.61c.14.25.3.49.47.74.94,1.29,2.55,2.53,2.52,4.25,0,3.15-4.09,4.11-5.53,6.54-1.44-2.43-5.5-3.39-5.54-6.54,0-1.72,1.59-3,2.52-4.25a7.73,7.73,0,0,0,.48-.74,9.83,9.83,0,0,1-8,3.61c-2.45-.12-5.71-1.22-7.12-3.24C111.9,27.4,115.41,24,119.16,25.2ZM127.75,36c-.06,2.47,2.83,3.57,4.29,5.2,1.46-1.63,4.35-2.73,4.29-5.2,0-1.85-2-3.26-3-4.7A10.3,10.3,0,0,1,132,28.4a10.3,10.3,0,0,1-1.32,2.87C129.78,32.71,127.79,34.12,127.75,36Z" style="fill:#121209"/><path d="M129.81,37.25a8.51,8.51,0,0,0,1,1l1.2,1.11,1.21-1.11a9.21,9.21,0,0,0,1-1A3,3,0,0,0,134.9,36a3.06,3.06,0,0,0-.57-2.22c-.46-.7-1.06-1.32-1.48-2a9.79,9.79,0,0,1-.81-1.91,9.79,9.79,0,0,1-.81,1.91c-.42.72-1,1.34-1.48,2a3.06,3.06,0,0,0-.57,2.22A2.89,2.89,0,0,0,129.81,37.25Z" style="fill:#121209"/><path d="M121.48,31.44c0,.27.46.53,1.4.48a6.86,6.86,0,0,0,3.69-1.55A9.37,9.37,0,0,0,129.2,27a11.17,11.17,0,0,0,.64-1.62s-.57.4-1.38,1.09-1.89,1.63-3,2.53C123.06,30.76,121.48,30.8,121.48,31.44Z" style="fill:#121209"/><path d="M96.1,31.52C90,34.05,82.76,30,77.58,27.16c-7-3.81-14.78-8.84-23.12-6.73C49.59,21.67,43.82,27.86,45.38,33a9.13,9.13,0,0,1-.32-6.6c2.46-6.31,9.79-8.16,16-7.06,7.7,1.38,13.85,6.5,20.84,9.57a29.46,29.46,0,0,0,5.74,1.76,18,18,0,0,1-5.42-2.47c-6.69-4.5-11.11-11.12-20-11.29-.06,0-.19-.23-.22-.22,7.76-2.08,13.06,5.89,18.59,9.67,4,2.74,9.51,4.76,13.74,1.24,1.42-1.18,2.66-3.11,2.37-5.05-.81-5.43-5.6-4.79-6-1.7,0-.09-.49-.39-.53-.53-1.3-4.45,3.75-2.7,5.55-.91,2.43,2.4,3.43,5.76,1.18,8.71A7.54,7.54,0,0,1,90.3,31c4.79.43,9.42-.74,9.29-6.41-.12-5-6.5-8.81-11-6.59a3.46,3.46,0,0,0-.2,6.34,1.88,1.88,0,0,1,0-1.74A2,2,0,0,1,91,21.76a1.93,1.93,0,0,1-.85,3.66,3.56,3.56,0,0,1-3.28-.86c-4.18-3.47.5-8.71,5.09-7.95C98.77,17.75,104.55,28,96.1,31.52Z" style="fill:#121209"/><path d="M48.89,18.45C43.12,20.84,36.23,17,31.31,14.31c-6.6-3.61-14-8.39-21.94-6.39C4.75,9.09-.73,15,.76,19.82a8.58,8.58,0,0,1-.3-6.26c2.33-6,9.28-7.75,15.15-6.7,7.3,1.3,13.14,6.17,19.78,9.08a28.13,28.13,0,0,0,5.44,1.67,17,17,0,0,1-5.13-2.34C29.34,11,25.15,4.71,16.71,4.55c-.06,0-.18-.22-.21-.21,7.36-2,12.4,5.59,17.64,9.18,3.79,2.6,9,4.52,13,1.18a5.61,5.61,0,0,0,2.26-4.79c-.78-5.16-5.32-4.56-5.69-1.62,0-.08-.46-.37-.49-.5C42,3.57,46.81,5.23,48.52,6.92c2.31,2.28,3.26,5.47,1.12,8.27A7.15,7.15,0,0,1,43.39,18c4.54.41,8.94-.7,8.82-6.08C52.09,7.19,46,3.54,41.77,5.65a3.28,3.28,0,0,0-.19,6,1.81,1.81,0,0,1,0-1.65,1.87,1.87,0,0,1,2.49-.83,1.83,1.83,0,0,1,.85,2.46,1.85,1.85,0,0,1-1.66,1,3.38,3.38,0,0,1-3.11-.82c-4-3.3.48-8.27,4.83-7.54C51.43,5.37,56.91,15.12,48.89,18.45Z" style="fill:#121209"/><path d="M77.64,18a23.93,23.93,0,0,0,3.51-.09,16,16,0,0,0,4.33-1c3-1.22,4.6-3,5.15-4.3s.26-2,0-2-.54.59-1.26,1.56a10.65,10.65,0,0,1-4.62,3.36,32.18,32.18,0,0,1-7.08,1.68l-2.3.34-.85.14.84.09C75.88,17.83,76.66,17.91,77.64,18Z" style="fill:#121209"/><path d="M80.09,15a8.65,8.65,0,0,0,3.44-2.83,4.63,4.63,0,0,0,.83-2.72,2.47,2.47,0,0,0-.58-1.56c-.26-.29-.49-.37-.62-.31-.31.14,0,.75-.2,1.91s-1.09,3-3.77,4.26A34,34,0,0,1,71.47,16c-1.06.24-1.93.46-2.52.62s-.91.28-.91.28l3.51-.16a36.28,36.28,0,0,0,3.84-.34A16.63,16.63,0,0,0,80.09,15Z" style="fill:#121209"/><path d="M168.46,31.52C174.53,34.05,181.8,30,187,27.16c7-3.81,14.78-8.84,23.12-6.73,4.86,1.24,10.64,7.43,9.07,12.54a9.08,9.08,0,0,0,.32-6.6c-2.46-6.31-9.78-8.16-16-7.06-7.69,1.38-13.84,6.5-20.83,9.57A29.68,29.68,0,0,1,177,30.64a17.94,17.94,0,0,0,5.41-2.47c6.7-4.5,11.11-11.12,20-11.29.06,0,.18-.23.22-.22-7.76-2.08-13.06,5.89-18.59,9.67-4,2.74-9.51,4.76-13.74,1.24-1.42-1.18-2.67-3.11-2.38-5.05.82-5.43,5.6-4.79,6-1.7,0-.09.49-.39.53-.53,1.3-4.45-3.75-2.7-5.55-.91-2.43,2.4-3.43,5.76-1.18,8.71A7.53,7.53,0,0,0,174.25,31c-4.78.43-9.42-.74-9.28-6.41.11-5,6.49-8.81,11-6.59a3.46,3.46,0,0,1,.2,6.34,1.91,1.91,0,0,0,0-1.74,2,2,0,0,0-2.63-.88,1.93,1.93,0,0,0,.86,3.66,3.57,3.57,0,0,0,3.28-.86c4.17-3.47-.5-8.71-5.09-7.95C165.79,17.75,160,28,168.46,31.52Z" style="fill:#121209"/><path d="M215.66,18.45c5.77,2.39,12.67-1.45,17.58-4.14,6.61-3.61,14-8.39,21.95-6.39,4.61,1.17,10.09,7.05,8.61,11.9a8.63,8.63,0,0,0,.3-6.26c-2.33-6-9.29-7.75-15.16-6.7-7.3,1.3-13.13,6.17-19.77,9.08a28.26,28.26,0,0,1-5.45,1.67,17,17,0,0,0,5.14-2.34c6.36-4.28,10.55-10.56,19-10.72.06,0,.17-.22.21-.21-7.37-2-12.4,5.59-17.64,9.18-3.8,2.6-9,4.52-13,1.18-1.35-1.12-2.54-2.95-2.26-4.79.77-5.16,5.31-4.56,5.68-1.62,0-.08.46-.37.5-.5,1.23-4.22-3.56-2.56-5.27-.87-2.3,2.28-3.25,5.47-1.12,8.27a7.18,7.18,0,0,0,6.26,2.8c-4.55.41-8.95-.7-8.82-6.08.11-4.72,6.17-8.37,10.44-6.26a3.28,3.28,0,0,1,.18,6A1.81,1.81,0,0,0,223,10a1.87,1.87,0,0,0-2.49-.83,1.83,1.83,0,0,0,.81,3.47,3.41,3.41,0,0,0,3.12-.82c4-3.3-.48-8.27-4.84-7.54C213.13,5.37,207.64,15.12,215.66,18.45Z" style="fill:#121209"/><path d="M186.91,18a24,24,0,0,1-3.51-.09,16.14,16.14,0,0,1-4.33-1c-3-1.22-4.6-3-5.14-4.3s-.26-2,0-2,.53.59,1.26,1.56a10.61,10.61,0,0,0,4.61,3.36,32.44,32.44,0,0,0,7.08,1.68l2.3.34.86.14-.84.09C188.67,17.83,187.89,17.91,186.91,18Z" style="fill:#121209"/><path d="M184.47,15A8.69,8.69,0,0,1,181,12.16a4.54,4.54,0,0,1-.82-2.72,2.53,2.53,0,0,1,.57-1.56c.27-.29.5-.37.63-.31.31.14,0,.75.2,1.91s1.08,3,3.76,4.26A34.19,34.19,0,0,0,193.09,16c1.06.24,1.92.46,2.51.62s.91.28.91.28l-3.5-.16a36.67,36.67,0,0,1-3.85-.34A16.57,16.57,0,0,1,184.47,15Z" style="fill:#121209"/></g></g></svg>